<svg xmlns="http://www.w3.org/2000/svg" width="32.558" height="32.597" viewBox="0 0 32.558 32.597"><g transform="translate(-6.45 -6.426)"><g transform="translate(6.45 6.426)"><path d="M35.464,33.023a1.151,1.151,0,1,0-1.627,1.627l5.3,5.3a1.124,1.124,0,0,0,.814.337h.056a1.283,1.283,0,0,0,.842-.421L54.123,23.96a1.155,1.155,0,0,0-1.768-1.487L39.869,37.428l-4.405-4.405Z" transform="translate(-25.91 -17.682)" fill="#7fbcbe"/><path d="M31.324,8.916a16.309,16.309,0,1,0,5.163,5.163,1.141,1.141,0,0,0-1.936,1.207,13.968,13.968,0,1,1-4.433-4.433,1.141,1.141,0,1,0,1.207-1.936Z" transform="translate(-6.45 -6.426)" fill="#7fbcbe"/></g></g></svg>