<svg xmlns="http://www.w3.org/2000/svg" width="349.95" height="403.82" viewBox="0 0 349.95 403.82"><g transform="translate(-43 -20.81)"><path d="M43,140.48l172.94,55.94V424.63L43,353.61Z" fill="#fff"/><path d="M392.95,140.48,220.04,196.42V424.63l172.91-71.02Z" fill="#fff"/><path d="M218,82.34l174.95,58.14L217.99,197.07,43,140.48Z" fill="#0047ba"/><path d="M75.77,158.13a8.828,8.828,0,0,1,1.36,1.76,1.942,1.942,0,0,0,.7.24v.3c.62.74,5.12,1.79,5.12,3.05a2.673,2.673,0,0,1,.36.09.89.89,0,0,0,.33.12,5.661,5.661,0,0,0,.37-.74c.32.16,1.02-.04,1.33.07a3.121,3.121,0,0,0,.37-.76c1.37.45,3.06.56,4.17.88.08-.09.19-.2.32-.33v-.4a.977.977,0,0,0,.37-.31c1.33.49,2.78.91,4.15,1.37,0-.42.68-1.02.68-1.47,1.04.36,5.22,2.5,5.96,2.32v-.38a4.68,4.68,0,0,0,.69.19c0-.8.29.14.29-.71a4.882,4.882,0,0,1,1.07.39c.11.13.23.32.4.51a9.289,9.289,0,0,1,.85.63c1.01.2,1.97.41,2.9.62a1.256,1.256,0,0,0,.39-.37c1.26.42,2.63.88,3.88,1.29.13.17.25.35.4.54v.84a.506.506,0,0,1,.3.11c.76,1.51-1.07,5.14-1.76,4.94v2.16c.14.14.23.3.38.45.11.22.22.41.31.59.5.15.97.32,1.44.51.39.51,1.78,1.8,1.78,2.25,2.14.65,5.65,2.71,8.16,3.51a4.918,4.918,0,0,1,.36.56v.36a1.092,1.092,0,0,0,.35.16,3.312,3.312,0,0,0,.36.53c0,.46.42,1.44.42,2.31a1.208,1.208,0,0,0,.29.45,1.263,1.263,0,0,0,.42.55c.65.21,1.72.99,2.48,1.26v-.83c.46.14.95.32,1.4.46v.4c.5.32.94.6,1.47.93a5.573,5.573,0,0,0,.34.5v.44c.08.2.25.33.38.57.17.05.45.15.64.19v.44c.75.66,2.18.3,2.55.42.14-.12.23-.24.33-.34,0-.39.39-1.13.77-1.02v-2.99c.36.14,2.45,0,2.83.1v-.42c.72.22,1.46.46,2.21.71.21.34.47.69.71,1.07.13.07.24.07.32.12a1.159,1.159,0,0,0,.38.11c0,.9.42.18.42,1a1.529,1.529,0,0,0,.37.11c.07.03.17.09.29.14.27.37.46.73.74,1.08,1.21.42,2.39.82,3.61,1.18,0,1.27,8.05,5.23,9.53,5.72v-.89c.13.04.2.1.37.16v-.9c2.21.73,4.39,1.47,6.6,2.19v.86c.71.25,0,.47.71.68v2.63c-.32-.15-.32.73-1.07.45a2.842,2.842,0,0,0-.38.32,4.441,4.441,0,0,0-.37.33c.37.13.74.69,1.49.9a6.809,6.809,0,0,0,2.19,2.45c.09.21.28.39.36.58.13.21.25.39.37.59,0,.45.37,1.44.37,2.28.78.22.78,1.53.78,1.97.09.05.24.1.33.14.75,1.54.42,4.87,1.15,6.45a1.214,1.214,0,0,0,.37.15v.83a10.894,10.894,0,0,0,1.87,2.38c.07.17.24.35.35.56a2.45,2.45,0,0,0,.38.53v3.97c.12.17.19.33.37.56a.856.856,0,0,1,.36.1.891.891,0,0,0,.38.11c0,.86.36.17.36.97a4.492,4.492,0,0,0,.78.69v1.36a1.384,1.384,0,0,1,.31.12c.43.59.43,3.16.43,4.07a2.485,2.485,0,0,0,.37.5,2.588,2.588,0,0,0,.37.59,1.175,1.175,0,0,0,.39.17.625.625,0,0,1,.36.13c.13.2.19.32.31.51v.43c.18.25.29.42.45.63a3.518,3.518,0,0,1,.36.07c.13.04.19.14.38.2v.8c.37.14.71,1.58.71,2,1.16.4.78,6.35.78,7.26a11.072,11.072,0,0,0,1.82,2,1.194,1.194,0,0,0,.76,1.1v.41c.37.56,2.28,2.11,2.28,2.52.37.18,1.51,1.42,1.51,1.89a2.118,2.118,0,0,1,.37.09c.1.07.24.11.35.18.14.32.24.63.37,1.01.76.23,1.53,1.77,2.28,2.04a6.509,6.509,0,0,0,.38.59v2.13a3.517,3.517,0,0,1-.77.23v.82c.39.16.77.7,1.13.84.13.23.27.43.4.63,0,.82.75,1.15.75,1.54.29.13.49.15.77.29v.45c.72.66,10.24,4.02,11.02,3.88v-.45c.38.12.72.22,1.11.38v-.38a11.323,11.323,0,0,1,1.17.34c0-.83,1.49-1.18,1.49-1.64a4.586,4.586,0,0,1,.77.29v-.43c.67.21,1.3.43,1.96.62v5.33a3.773,3.773,0,0,0-1.19,1.83c-.77-.25,0,.42-.77.13v.95c-.77-.36,0,.39-.77.14v.86c-.75-.24-1.49,2.95-2.22,2.71v.88c-.82-.25,0,.42-.82.19v.88c-.14-.05-.26-.11-.34-.13v.87c-.31.17-.54.44-.83.57V287a1.089,1.089,0,0,0-.33-.09v.87a.7.7,0,0,0-.41-.09v.8a2.722,2.722,0,0,1-.73.24v.85c-.8-.32-.8,1.01-1.53.75,0,.87-1.14.87-1.14,1.73-.74-.23,0,.46-.74.23,0,.44-.76,1.45-1.18,1.37a.588.588,0,0,1-.77.57c0,.91-.34-.17-.34.7-.37-.15-1.15.54-1.49.35,0,.9-.44-.12-.44.7a5.377,5.377,0,0,0-2.99.72v.43s-.73-.26-.73.62c-.42-.19-1.93.95-1.93,1.43-.76-.31-1.13.92-1.48,1.24a1.655,1.655,0,0,0-.37-.13,5.035,5.035,0,0,0-.38,1.19.881.881,0,0,1-.33-.2s-1.17,1.31-1.17,1.83c-.78-.33,0,.37-.78.09,0,.45-.37.8-.37,1.19-.76-.25,0,.46-.76.16,0,.39-1.47,1.64-1.47,1.64v.88c-1.9.15-.74,3.21-1.47,4.21-.13-.05-.29-.09-.43-.14v1.3c.43.14.78,1.16.78,1.59.1.2.26.37.38.6a1.3,1.3,0,0,1,.39.11,2.686,2.686,0,0,0,.34.17v8.73c.36.14.71.72,1.08.83a2.012,2.012,0,0,1,.38.6c0,3.02-1.81,11.47-.67,14.13.11.04.2.09.34.14v3.05a3.534,3.534,0,0,0-.34.32c-.34-.12-.53-.2-.8-.32v.42a17.289,17.289,0,0,1-5.23-.67c0,.4-1.1.4-1.5.25,0,0-1.12.88-1.48.72a.585.585,0,0,1-.76.61c0,.43-.73,1.03-.73,1.44-.24-.14-.48-.2-.74-.34v.46c-.1-.04-.27-.08-.38-.12a2.478,2.478,0,0,0-.37-.17v.45a1.642,1.642,0,0,0-.77-.27c-.13.09-.25.12-.33.27v3.47a4.218,4.218,0,0,0,.77.74v.9c.7.25,0,.4.7.71a4.229,4.229,0,0,0,.74,1.6v5.57c-.14.15-.27.26-.36.35a.532.532,0,0,0-.74.53,10.39,10.39,0,0,1-1.09.04v.45c-.42.25-1.85-.34-2.22-.49-.13.13-.27.19-.36.32v.8c-.77-.25-1.14,6.53-1.14,7.4a2.886,2.886,0,0,0-.37.31h-1.12v.4c-.36.31-1.42-.17-2.17-.47a5.518,5.518,0,0,1-.44.75c-.31-.16-.68.57-1.04.41,0,.45-.38,1.18-.38,1.56-.75-.3-.75,2.33-1.44,2v1.34a15.109,15.109,0,0,0-1.51,1.59v.83c-.35-.14-.73.56-.73,1.02a3,3,0,0,1-.37.21,4.323,4.323,0,0,1-.38.32,3.564,3.564,0,0,0-1.46.3v.42c-.36.25-1.43-.18-1.84-.35v.46c-.58-.25-1.19-.49-1.82-.75v.37a14.027,14.027,0,0,1-6.54-.92c-.38-.55-1.41-1.8-1.41-2.29-1.46-.6-3.32-1.3-4.42-.88v.38h-1.07v.42c-.4-.15-1.03,0-1.03.84a1.8,1.8,0,0,0-.36.31,6.278,6.278,0,0,1-2.91-2.49,5.92,5.92,0,0,0-.75-.27v-.34a6.246,6.246,0,0,0-1.02-.54v-.44c-.44-.15-.74-.32-1.07-.42v1.65c0-.8-.37-2.26-.37-3.07.7.28,0-.43.7-.15v-2.1c-.7-.31,0-.46-.7-.75,0-.42.37-1.54.7-1.42v-1.26a1.5,1.5,0,0,0,.4.2v-1.74a5.307,5.307,0,0,1-.4-.61,6.844,6.844,0,0,0-1.07-.81v-.47a12.8,12.8,0,0,1-1.05-.83,1.411,1.411,0,0,0-.74-1.18,2.636,2.636,0,0,1-.37-.58c0-.41-.29-1.84-.29-2.26a1.307,1.307,0,0,0-.38-.09,10.689,10.689,0,0,0-.68-2.83c-.16-.06-.28-.14-.37-.18-.42-.56-.7-2.38-1.12-2.99a1.087,1.087,0,0,1-.36-.12c-1.07-1.72-.35-4.87-1.07-6.47a1.747,1.747,0,0,0-.38-.09V341.6c-.1-.05-.19-.05-.31-.11-1.46-3.06-1.46-8.68-2.83-11.81a1.413,1.413,0,0,1-.41-.13c-.1-.55-.21-1.19-.31-1.86-.76-.23,0-.33-.76-.63v-.87c-.12-.05-.27-.13-.38-.18v-.79c-.27-.14-.66-1.54-1-1.75v-.8c-.16-.05-.27-.12-.39-.16,0-.38-.37-2.28-.37-2.71-.12,0-.2-.06-.38-.06-1.36-3.51,2.86-14.64,5.01-13.84v-3.78c-.67-.24,0-.5-.67-.71,0-.46-.35-.97-.35-1.39-.71-.24,0-.48-.71-.74,0-1.67-.41-4.37-.41-6.01a4.34,4.34,0,0,1-.73-1.6,1.664,1.664,0,0,1-.27-.52,1.082,1.082,0,0,1-.39-.18v-.4c-.11-.03-.23-.12-.34-.12a3.6,3.6,0,0,1-.39-.57v-1.22c-.1-.08-.25-.11-.37-.19v-.8a.448.448,0,0,0-.38-.11c0-.49-.28-2.33-.28-2.76a.654.654,0,0,1-.34-.11,33.26,33.26,0,0,1-.73-5.76c-.71-.28,0-.45-.71-.73,0-.38-.67-1.49-.67-1.94-.27-.22-.54-.45-.77-.65v-.95c-.69-.21,0-.39-.69-.62,0-.44-.38-.96-.38-1.37-.11-.22-.23-.41-.31-.6a1.288,1.288,0,0,0-.37-.12v-.4a2.034,2.034,0,0,1-.33-.15v-.45a.787.787,0,0,1-.37-.16,2.539,2.539,0,0,1-.31-.5v-2.91c.31.09.68-.63.68-1.04a.594.594,0,0,0,.7-.61c.69.29,0-.42.69-.15,0-1.26.38-5.34,0-6.29-.08-.02-.27-.1-.32-.1v-.86a1.77,1.77,0,0,1-.37-.59c-.16-.07-.27-.07-.37-.11v-.42a2.969,2.969,0,0,1-.33-.55c-.48-.33-.96-.62-1.43-.9v-.45c-1.39-1.33-5.22-2.31-6.98-2.93a1.366,1.366,0,0,0-.67-1.1v-.85a2.5,2.5,0,0,0-.4-.11v-.73c-.09-.17-.27-.17-.37-.25v-1.28c-.14-.15-.19-.35-.32-.51-.1-.09-.3-.11-.37-.15v-.42c-.1-.19-.22-.39-.32-.54a6.116,6.116,0,0,1-.69-.28v-.41c-1.41-1.33-5.95-1.22-7.28-1.8,0,.84-.37-.12-.37.76-.14-.09-.31-.09-.38-.19-.14,0-.24,0-.32-.11,0,.86-.31-.12-.31.74-.43-.13-1.49-.08-1.49.3a3.139,3.139,0,0,1-.63-.29v.54c-1.03.4-4.13-.69-5.89-1.32,0-.46-.31-1.37-.31-2.22a10.085,10.085,0,0,1-.68-1.12c-.7-.22-3.12-1.53-3.4-1.2v.41c-.23-.1-.5-.17-.7-.27,0,.41-.73.18-.73,1a1.718,1.718,0,0,1-.29.31c-.12-.01-.28-.09-.36-.09v.35a.731.731,0,0,1-.32-.06v.3a.451.451,0,0,1-.36,0v.42a1.208,1.208,0,0,1-.36-.18,2.53,2.53,0,0,1-.32.33c-.09.24-.21.49-.29.69-3.44-1.2-6.5-6.89-8.84-7.72a3.918,3.918,0,0,1-.38-.53v-.43c-.09-.19-.22-.36-.3-.51a7.316,7.316,0,0,1-1.74-2.68,2.5,2.5,0,0,0-.31-.55,2.687,2.687,0,0,1-.38-.55c-.32-.12-.62-.59-1.01-.74-.09-.21-.21-.34-.32-.56-.21-1.04-.4-2.09-.68-3.11a1.075,1.075,0,0,1-.32-.2v-.76a3.163,3.163,0,0,1-1.01-1.62c-.68-.23-1.29-1.74-2.04-1.93a9.2,9.2,0,0,1-.33-.97c-.09-.03-.19-.1-.3-.15a1.189,1.189,0,0,0-.67-1.06,1.9,1.9,0,0,1-.33-.53v-.4a2.077,2.077,0,0,1-.39-.53c-.65-.23-1.63-2.23-2.34-2.46-.13-2.63-.21-5.33-.3-7.96a3.909,3.909,0,0,1-.64-.24v-.39c-.39-.13-.71-.25-1-.36v-.73a.681.681,0,0,0,.61-.66.616.616,0,0,0,.71-.67c.99.38.61-1.84.99-2.07a1.182,1.182,0,0,1,.34.1c.99-1.75,0-7.88,0-9.87a2.3,2.3,0,0,0-.34-.54c-.37-.15-.99-1.21-1.31-1.31v-2.07c.32.14.94-1.28,1.31-1.22,0-2.87,2.98-3.93,2.98-5.98a1.371,1.371,0,0,0,.39-.33.56.56,0,0,0,.3.15.775.775,0,0,1,.39-.28c0-.8.33-1.96.33-2.78.35.1,2.02-.53,2.02-.95a.673.673,0,0,1,.31.09.574.574,0,0,1,.32.13,1.339,1.339,0,0,1,.37-.33v-.43a.948.948,0,0,0,.33.12v-.39a.548.548,0,0,1,.31.13v-.45a.642.642,0,0,1,.39.14v-.48a.533.533,0,0,0,.32.15v-.44a.74.74,0,0,0,.38.11v-.35a1.38,1.38,0,0,1,.29.12c.07-.12.23-.2.32-.32,0-.46.31-.78.65-.62,0-.82.38.15.38-.74,1.01.36,1.7-1.08,2.7-.77a.859.859,0,0,0,.32-.28v-.39a1.177,1.177,0,0,1,.37.13c.06-.13.21-.23.31-.35v-2.89a1.41,1.41,0,0,0-.31-.07v-2.11c.21-.05.43-.07.67-.13.17-.14.17-.23.32-.36v-.4a1.915,1.915,0,0,0,.34.1,3.286,3.286,0,0,1,.37-.32v-1.18a3.536,3.536,0,0,1,3.35-.6c0-.82,2.1-.16,2.1-1.43.62.22,0-.41.62-.19v-.76a5.222,5.222,0,0,0,1.4-2.57,5,5,0,0,0,.75-.64" fill="#0047ba"/><path d="M160.31,206.76c-1.07-.59-2.3-.92-3.58-1.5l2.91-2.33c-4.67-1.6-10.11-3.65-13.91-6.93-.91-.88-2.77-1.2-3.98-1.64l-3.2-3.29-3.34,4.39-1.3-.22c-3.03.12-4.6-1.06-6.13-3.5a8.532,8.532,0,0,1-3.69-1.39c-1.97-1-2.59-2.27-2.98-4.4l-1.02-.34v-.96c-2.71-1.16-5.14-2.41-7.91-3.39l-1.12-2.01c-4.17-1.36-3.4-5.56-3.4-9.36l1.39-.03v-1.03l-.29-.07-.14.11c-1.77-.26-4.71-.58-6.08-1.61-1.85.61-3.52-.2-5.18-.97l-.19,1.27-5.55-1.81-.95.94c-1.12-.35-2.09-.59-3.15-.84l-.32.73-1.27-.29-.61,1.3c-1.71-.58-3.32-1.16-5.08-1.74l-.15-.94c-1.07-.46-2.18-.84-3.26-1.33L73.52,166l-.61,1.58-2.16-.71v.18l-.72.53v.05l-.67.52v5.09a31.111,31.111,0,0,0-3.08,2.86l-1.08-.28a22.161,22.161,0,0,0-3.95,3.32h-.03l-1.76,1.54-.54-.18-.05,1.75-3.62,4.1c-.68.99-.46,2.25-.54,3.46l-.34.04.85,2.49-.18,10.83-.6,10.52,1.5,1.49,4.68,6,.16,1.16c1.19.68,1.6,3.52,1.92,5.04l2.21,3.11a27.5,27.5,0,0,0,1.99,2.88,26.373,26.373,0,0,1,4.33,4.38v-.56l.34.04v-.4l2.46.85,1.33-1.24.84.32c2.34-.08,4.02.98,6.16,1.82,1.53,2.62,1.17,2.12,5.05,3.47l1.02-1.31.53.25.48-.67a19.959,19.959,0,0,0,4.9,1.1c4.3.57,7.4,2.4,8.47,6.7l.61.23v1.53c3.12,1.02,5.19,1.82,7.68,4.01v.16c1.43.91,2.73,3.96,2.9,5.37.24,2.52-.08,5.13-.08,7.74l-2.01,1.45.64.21v1.24c.76,1.2.66,2,2.07,2.66v1.55l.54.39c.2,1.58.16,1.6,1.54,2.29a54.627,54.627,0,0,0,.37,5.47l.66.29c.03.83.03,1.73.11,2.54l.66.28v.85l.36.14a5.217,5.217,0,0,0,.85,3.4c1.52,2.23,1.38,5.11,1.62,7.81l.5.22c.25,1.87-.15,1.55,1.28,2.19v9.6l-2.55-.49a19.543,19.543,0,0,0-2.68,8.25l.56.23a14.193,14.193,0,0,0,.16,2.59l.62.27,1.01,3.12v.22l.38.19v1.36l.39.14.61,2.58,2.63,10.91,1.01.43v2.81c.74,2,.63,3.58.84,5.6.49.21,1.11,2.39,1.41,3.09.5.22,1.14,2.42,1.38,3.1l.53.29c.23,3.09.1,3.43,2.69,5.46v.39c2.52,2.06,1.05,7.21,1.05,10.05l1.94,1.89c3.08-2.16,6.94-.31,10.01.94.31,1.9.15,1.82,1.99,2.17v-1.8l1.82.77v-.38l4.71,1.28.09-.84c1.05-.94,1.47-.94,1.47-2.33,1.69-3,1.8-2.82,2.15-6.3l1.84.23.89-1.79.25.06V206.76m-.32-4.06v-.58l.32.14v.16Zm.32,161.51V206.76a6.965,6.965,0,0,1,2.07,1.58c2.02,2.38,1.93,1.57,2.02,4.81l.71.4v2.03l.84.32c.35,3.63.79,6.7,3.63,9.42,0,1.75-.39,3.25.55,4.78a7.6,7.6,0,0,0,.98,1.41l.69.56v2.19l.71.2.59,3.61,2.42,3.75c1.18.87.77.67.9,2.41l.55.31a39.694,39.694,0,0,1,.03,4.88l4.63,7.02a1.511,1.511,0,0,1,.63,1.13c1.52.92,1.18.5,1.56,2.22l1,.32,1.52,1.63v4.77l2.75,3.42,3.06,1.66c3.2,1.43,7.76,3.34,11.28,3.72l3.25.81-2.47,1.26a3.112,3.112,0,0,1-.55,2.28l-1.74-.16v.51l-.75-.19v.6l-.38-.11v3.7l-1,1.88-1.29.26v.78l-.95-.15-.31,1.95-1.56-.45-.42,2.82-1.23.94-.91-.07-4.03,2.23c-2.09,1.87-4.37,3.31-6.04,5.5l-1.95-.54-.15,1.59-.24-.02-2.6,3.95v.72a4.049,4.049,0,0,0-.9,1.55l-.95-.36v7.53l.77.49,1.08,2.02v8.88l1.43.73c-.37,3.81-1.33,7.89-.97,11.69l-.46-.15v1.7l-5.56.51-2.29-.2v.25l-.38-.13-.46,2.06-3.61,2.01v6.28l.83.69v1.46l1.4,3.96-1.68-.53a29.714,29.714,0,0,0-3.12,2.28l-.16,1.53a27.6,27.6,0,0,0-.79,5.38Zm0-161.96h.04v-.9l.26.13v.68l-.3.25v-.16Z" fill="#0047ba"/><line y1="66.48" x2="199.6" transform="translate(43.41 74.83)" fill="none" stroke="#fff" stroke-miterlimit="10" stroke-width="2"/><line x1="199.68" y1="66.25" transform="translate(192.91 75.16)" fill="none" stroke="#fff" stroke-miterlimit="10" stroke-width="2"/><path d="M159.28,148.26c18.72-5.51,35.84-10.62,51.49-15.28,14.28-4.34,27.56-8.25,39.86-11.93,2.75.45,5.53.96,8.35,1.43,2.84.55,5.71,1.06,8.67,1.59-12.13,3.87-25.18,8.19-39.48,12.83-15.49,5.05-32.56,10.63-51.35,16.7-3.04-.91-6.04-1.81-9.02-2.68-2.88-.89-5.68-1.78-8.52-2.66" fill="#fff"/><path d="M326.87,249.13q0-17.46,6.02-26.53c3.93-6.1,10.53-10.7,19.95-13.99,9.29-3.19,15.96-3.17,19.91.23,4.01,3.37,5.96,10.82,5.96,22.41v6.72l-20.87,7.21V233.63c0-3.83-.31-6.17-1.08-6.95-.71-.8-2.05-.82-3.92-.17a7.443,7.443,0,0,0-3.98,2.77c-.77,1.23-1.07,3.55-1.07,7.16v44.43c0,3.56.31,5.71,1.07,6.43.72.68,2.06.74,3.98.05a6.984,6.984,0,0,0,3.92-2.89c.77-1.24,1.08-3.9,1.08-7.77V260.42l20.87-7.17v11.38c0,11.61-1.95,20.43-5.96,26.52-3.95,6.06-10.62,10.75-19.91,13.92-9.42,3.28-16.02,3.22-19.95-.2-4.03-3.32-6.02-10.81-6.02-22.46V249.13M275.14,330.7V236.58l41.9-14.46v17.9l-21.39,7.39v15.97l20.65-7.05v17.72l-20.65,7.08v24.58l22.38-7.75V315.9ZM241.3,248.23l20.56-7.1v94.15l-20.56,7.08V248.23Z" fill="#0047ba"/><path d="M141.54,356.67c7.03,2.05,12.78,9.27,12.78,16.18,0,6.83-5.75,10.8-12.78,8.74-7.1-2.05-12.83-9.29-12.83-16.22.01-6.78,5.74-10.73,12.83-8.7" fill="#0047ba" stroke="#fff" stroke-miterlimit="10" stroke-width="1"/><path d="M175.46,54.97c14.86-6.19,29.24-12.1,43.2-17.91,13.36-5.56,26.46-11,39.09-16.25q4.02,21.33,8.06,42.24c2.58,13.86,5.25,27.51,7.84,41.06-12.05,6.42-24.52,12.98-37.25,19.74q-19.89,10.5-40.98,21.75-4.875-22.125-9.84-44.63-5.04-22.71-10.12-46" fill="#0047ba"/><path d="M179.98,57.27c13.53-5.63,26.68-11.17,39.36-16.52,12.35-5.13,24.33-10.19,36.01-15.09,2.45,13.06,4.98,26.02,7.42,38.84q3.69,19.065,7.25,37.84c-11.12,5.89-22.58,11.85-34.37,18.06-12.16,6.35-24.62,12.91-37.49,19.73q-4.41-20.295-8.94-40.84c-3.06-13.86-6.1-27.85-9.24-42.02" fill="#fff"/><path d="M196.87,60.29c5.07,2.57,10.1,5.14,15.08,7.67,4.91,2.46,9.69,4.93,14.46,7.35,3-5.98,6.04-11.96,9.01-17.93,2.91-5.86,5.87-11.72,8.79-17.52,1.13-2.18,3.41-3.14,5.12-2.22,1.7.98,2.2,3.58,1.14,5.71-2.89,5.83-5.79,11.62-8.72,17.49-2.92,5.85-5.85,11.82-8.85,17.77,4.65,2.34,9.21,4.69,13.8,7,4.5,2.3,8.89,4.47,13.28,6.74,1.62.85,2.11,3.3,1.05,5.52-1,2.19-3.27,3.3-4.9,2.51-4.41-2.2-8.9-4.39-13.43-6.62-4.55-2.23-9.25-4.55-13.89-6.87-3.03,6.05-6.06,12.18-9.17,18.28-3.04,6.19-6.12,12.38-9.16,18.69-1.26,2.4-3.79,3.69-5.59,2.82-1.95-.76-2.48-3.44-1.29-5.82,3.2-6.29,6.32-12.53,9.44-18.83,3.08-6.12,6.11-12.26,9.16-18.4-4.74-2.35-9.58-4.78-14.56-7.21-5.01-2.45-10.13-4.97-15.26-7.59-1.95-.92-2.53-3.66-1.32-5.99,1.24-2.39,3.86-3.53,5.81-2.55" fill="#0047ba"/></g></svg>