<svg xmlns="http://www.w3.org/2000/svg" width="32.653" height="32.597" viewBox="0 0 32.653 32.597"><g transform="translate(-6.3 -6.4)"><g transform="translate(6.3 6.4)"><path d="M38.645,17.247l-.056-.2a.282.282,0,0,1-.028-.084l-3.532-9.81A1.157,1.157,0,0,0,33.936,6.4H11.289a1.185,1.185,0,0,0-1.093.757l-3.5,9.754c-.028.056-.028.112-.056.168l-.112.336a.829.829,0,0,0-.056.28A4.421,4.421,0,0,0,6.3,18.873,4.892,4.892,0,0,0,9.551,23.5V37.848A1.137,1.137,0,0,0,10.7,39H35a1.137,1.137,0,0,0,1.149-1.149V23.3a4.959,4.959,0,0,0,2.8-4.428,4.837,4.837,0,0,0-.14-1.065,1.645,1.645,0,0,0-.168-.561ZM33.824,36.7H11.85V23.75c.056,0,.14-.028.2-.028a4.937,4.937,0,0,0,3-1.71,4.878,4.878,0,0,0,3.784,1.766,4.969,4.969,0,0,0,3.784-1.766A4.878,4.878,0,0,0,26.4,23.778a4.969,4.969,0,0,0,3.784-1.766,4.729,4.729,0,0,0,2.523,1.6c.028,0,.056.028.084.028.112.028.224.056.364.084.056,0,.14.028.2.028.084,0,.2.028.28.028.056,0,.14.028.2.028V36.7Zm.9-15.3h0c-.14.028-.252.056-.364.084a1.6,1.6,0,0,1-.364.028,3.088,3.088,0,0,1-.5-.056c-.14-.028-.28-.084-.392-.112-.028,0-.028,0-.056-.028a2.69,2.69,0,0,1-1.654-2.242v-.2a1.149,1.149,0,1,0-2.3,0,.355.355,0,0,1-.028.168v.028a2.653,2.653,0,0,1-1.654,2.242c-.028,0-.028,0-.056.028a2.335,2.335,0,0,1-.42.112,2.3,2.3,0,0,1-1.009,0c-.14-.028-.28-.084-.392-.112-.028,0-.028,0-.056-.028a2.69,2.69,0,0,1-1.654-2.242v-.056c0-.056-.028-.084-.028-.14a1.149,1.149,0,1,0-2.3,0,.356.356,0,0,1-.028.168v.028a2.653,2.653,0,0,1-1.654,2.242c-.028,0-.028,0-.056.028a2.335,2.335,0,0,1-.42.112,2.3,2.3,0,0,1-1.009,0c-.14-.028-.28-.084-.42-.112-.028,0-.028,0-.056-.028a2.69,2.69,0,0,1-1.654-2.242v-.2a1.149,1.149,0,0,0-2.3,0,.355.355,0,0,1-.028.168v.028a2.653,2.653,0,0,1-1.654,2.242c-.028,0-.028,0-.056.028a2.065,2.065,0,0,1-.392.112,3.089,3.089,0,0,1-.5.056c-.084,0-.2-.028-.28-.028a.212.212,0,0,1-.112-.028h-.084A2.651,2.651,0,0,1,8.6,18.845a2.432,2.432,0,0,1,.112-.729c0-.028.028-.084.028-.112L12.1,8.67H33.123L36.4,17.78a.282.282,0,0,1,.028.084l.056.168c0,.028.028.084.028.112a2.432,2.432,0,0,1,.112.729A2.675,2.675,0,0,1,34.721,21.4Z" transform="translate(-6.3 -6.4)" fill="#f16162"/></g></g></svg>