<svg xmlns="http://www.w3.org/2000/svg" width="29.363" height="32.597" viewBox="0 0 29.363 32.597"><g transform="translate(-12.3 -6.5)"><g transform="translate(12.3 6.5)"><path d="M12.3,24.416a14.681,14.681,0,1,0,25.088-10.35l1.153-1.153.534.534a1.154,1.154,0,0,0,1.631,0,1.154,1.154,0,0,0,0-1.631L38.034,9.144A1.153,1.153,0,1,0,36.4,10.775l.534.534-1.266,1.266a14.528,14.528,0,0,0-7.509-2.784V8.806h2.559a1.153,1.153,0,1,0,0-2.306H23.128a1.153,1.153,0,1,0,0,2.306h2.728v.984A14.689,14.689,0,0,0,12.3,24.416ZM26.981,12.041a12.4,12.4,0,1,1-12.4,12.4A12.423,12.423,0,0,1,26.981,12.041Z" transform="translate(-12.3 -6.5)" fill="#ffd13a"/><path d="M61.553,49.594h4.922a1.153,1.153,0,1,0,0-2.306H62.706V41.353a1.153,1.153,0,0,0-2.306,0v7.116A1.135,1.135,0,0,0,61.553,49.594Z" transform="translate(-46.872 -30.722)" fill="#ffd13a"/></g></g></svg>